<?xml version="1.0" encoding="UTF-8" standalone="no"?>
<!-- Generator: Adobe Illustrator 12.0.1, SVG Export Plug-In . SVG Version: 6.00 Build 51448)  -->

<svg
   version="1.1"
   id="Layer_1"
   inkscape:output_extension="org.inkscape.output.svg.inkscape"
   sodipodi:version="0.32"
   inkscape:version="1.1.1 (c3084ef, 2021-09-22)"
   sodipodi:docname="yfpy-logo.svg"
   width="300.58774"
   height="288.90939"
   viewBox="130.35156 177.43359 300.58774 288.90939"
   overflow="visible"
   enable-background="new 130.3515625 177.4335938 800 151.6611328"
   xml:space="preserve"
   style="overflow:visible"
   inkscape:export-filename="/Users/wrenjr/Downloads/yfpy-logo.png"
   inkscape:export-xdpi="319.37"
   inkscape:export-ydpi="319.37"
   xmlns:inkscape="http://www.inkscape.org/namespaces/inkscape"
   xmlns:sodipodi="http://sodipodi.sourceforge.net/DTD/sodipodi-0.dtd"
   xmlns="http://www.w3.org/2000/svg"
   xmlns:svg="http://www.w3.org/2000/svg"
   xmlns:rdf="http://www.w3.org/1999/02/22-rdf-syntax-ns#"
   xmlns:cc="http://creativecommons.org/ns#"><metadata
   id="metadata2296"><rdf:RDF><cc:Work
       rdf:about="" /></rdf:RDF></metadata><defs
   id="defs2294"><inkscape:perspective
     sodipodi:type="inkscape:persp3d"
     inkscape:vp_x="0 : 64.739963 : 1"
     inkscape:vp_y="0 : 999.99999 : 0"
     inkscape:vp_z="800.00001 : 64.739963 : 1"
     inkscape:persp3d-origin="400 : 39.463103 : 1"
     id="perspective2840" /></defs>
<sodipodi:namedview
   gridtolerance="10.0"
   bordercolor="#666666"
   inkscape:zoom="1.5754143"
   inkscape:cx="75.853063"
   inkscape:cy="124.41172"
   pagecolor="#ffffff"
   guidetolerance="10.0"
   borderopacity="1.0"
   id="base"
   objecttolerance="10.0"
   inkscape:window-x="0"
   inkscape:window-y="38"
   inkscape:current-layer="g23957"
   inkscape:window-width="1728"
   inkscape:pageshadow="2"
   inkscape:pageopacity="0.0"
   inkscape:window-height="1004"
   showgrid="false"
   inkscape:window-maximized="1"
   inkscape:pagecheckerboard="0"
   fit-margin-left="0"
   fit-margin-top="0"
   fit-margin-right="0"
   fit-margin-bottom="0">
	</sodipodi:namedview>







<g
   inkscape:groupmode="layer"
   id="layer2"
   inkscape:label="F #720e9e"
   style="display:none"
   transform="translate(-45.256416,-63.75774)"><text
     xml:space="preserve"
     style="font-style:normal;font-variant:normal;font-weight:bold;font-stretch:normal;font-size:231.176px;line-height:1.25;font-family:Optima;-inkscape-font-specification:'Optima Bold';letter-spacing:0px;overflow:visible;opacity:0.98;fill:#720e9e;fill-opacity:1;stroke-width:1.15587"
     x="380.1243"
     y="420.72958"
     id="text7169"><tspan
       sodipodi:role="line"
       id="tspan7167"
       x="380.1243"
       y="420.72958"
       style="font-style:normal;font-variant:normal;font-weight:bold;font-stretch:normal;font-size:231.176px;font-family:Optima;-inkscape-font-specification:'Optima Bold';fill:#720e9e;fill-opacity:1;stroke-width:1.15587">f</tspan></text></g><g
   inkscape:groupmode="layer"
   id="g23815"
   inkscape:label="F #410093"
   style="display:inline"
   transform="translate(-45.256416,-63.75774)"><text
     xml:space="preserve"
     style="font-style:normal;font-variant:normal;font-weight:bold;font-stretch:normal;font-size:218.68px;line-height:1.25;font-family:Optima;-inkscape-font-specification:'Optima Bold';letter-spacing:0px;overflow:visible;opacity:0.94;fill:#410093;fill-opacity:1;stroke:#720e9e;stroke-width:9.45944;stroke-miterlimit:4;stroke-dasharray:none;stroke-opacity:1"
     x="374.07895"
     y="411.02444"
     id="text23813"><tspan
       sodipodi:role="line"
       id="tspan23811"
       x="374.07895"
       y="411.02444"
       style="font-style:normal;font-variant:normal;font-weight:bold;font-stretch:normal;font-size:218.68px;font-family:Optima;-inkscape-font-specification:'Optima Bold';fill:#410093;fill-opacity:1;stroke:#720e9e;stroke-width:9.45944;stroke-miterlimit:4;stroke-dasharray:none;stroke-opacity:1">f</tspan></text></g><g
   inkscape:groupmode="layer"
   id="layer1"
   inkscape:label="Y"
   style="display:none"
   transform="translate(-45.256416,-63.75774)"><path
     id="path2217"
     d="m 470.92643,322.27045 c -5.2009,0.51386 -26.85186,5.3644 -34.12897,6.92416 -7.79227,2.0736 -78.98414,57.07497 -83.66081,70.5807 -1.03681,4.67406 -1.5565,11.86553 -1.5565,18.62359 l -0.52165,10.91566 c 0,7.78838 2.1638,20.34945 3.19995,27.10231 4.68055,1.04329 38.55454,0.13235 44.78836,1.16786 l -0.7669,13.9703 c -6.09108,-0.4438 -49.10557,-0.33998 -73.68009,-0.33998 -12.47476,0 -52.57608,1.37548 -64.89707,1.00436 l 2.32924,-13.28514 c 6.75611,-0.52424 34.72913,1.2068 40.8786,-5.28394 3.05461,-3.22072 2.08139,-6.67242 2.08139,-25.37646 v -8.83167 c 0,-4.15761 0,-11.95637 -1.04265,-19.23347 -2.59656,-7.79617 -65.30129,-86.09 -81.40942,-98.55763 -4.68055,-1.55715 -33.99013,-4.4885 -41.26399,-6.05084 l -0.36204,-11.96805 c 3.62883,-1.81928 36.22075,0.44249 67.8492,-0.72797 20.78673,-0.76819 68.21511,0 74.06677,0.69684 l -1.49941,10.54713 c -6.23382,1.56105 -36.26552,2.13849 -44.06168,4.2147 20.26768,30.13876 52.31202,68.94049 62.70668,84.01118 5.71931,-8.31262 55.95445,-42.8737 57.51162,-54.82488 -7.79747,-1.56495 -33.60668,-5.27876 -37.76559,-5.27876 l -2.46874,-13.60696 c 7.07534,-1.10687 44.27838,0 62.77416,0 15.96214,0 50.07036,0 59.76235,0.79416 l -8.86281,12.8128"
     style="overflow:visible;fill:#720e9e;fill-opacity:1" /></g><g
   inkscape:groupmode="layer"
   id="g23957"
   inkscape:label="Y inner"
   style="display:inline"
   transform="translate(-45.256416,-63.75774)"><path
     id="path23955"
     d="m 458.66362,320.41353 c -4.98478,0.4925 -25.73606,5.14149 -32.71077,6.63643 -7.46847,1.98744 -75.70206,54.70329 -80.1844,67.64781 -0.99372,4.47983 -1.49181,11.37247 -1.49181,17.84971 l -0.49998,10.46207 c 0,7.46475 2.07388,19.50386 3.06699,25.97611 4.48605,0.99994 36.95245,0.12685 42.92723,1.11933 l -0.73503,13.38978 c -5.83797,-0.42536 -47.06505,-0.32585 -70.61841,-0.32585 -11.95638,0 -50.39135,1.31832 -62.20035,0.96262 l 2.23245,-12.73309 c 6.47537,-0.50246 33.286,1.15665 39.17994,-5.06437 2.92768,-3.08689 1.9949,-6.39516 1.9949,-24.32198 v -8.46467 c 0,-3.98485 0,-11.45954 -0.99932,-18.43425 -2.48867,-7.47222 -62.58778,-82.51264 -78.02656,-94.46219 -4.48605,-1.49244 -32.57771,-4.30199 -39.54931,-5.7994 l -0.34699,-11.47074 c 3.47803,-1.74368 34.71564,0.42411 65.02981,-0.69772 19.92296,-0.73626 65.38051,0 70.98901,0.66789 l -1.43711,10.10886 c -5.97478,1.49618 -34.75854,2.04962 -42.23075,4.03955 19.42548,28.88639 50.13827,66.07575 60.10098,80.52021 5.48166,-7.96721 53.62933,-41.09214 55.12181,-52.5467 -7.47347,-1.49992 -32.21021,-5.05941 -36.1963,-5.05941 l -2.36615,-13.04154 c 6.78133,-1.06087 42.43844,0 60.16565,0 15.29886,0 47.98975,0 57.27901,0.76116 l -8.14106,11.76935 -2.03987,0.98034"
     style="overflow:visible;fill:#410093;fill-opacity:1;stroke:#720e9e;stroke-width:10;stroke-miterlimit:4;stroke-dasharray:none;stroke-opacity:1"
     sodipodi:nodetypes="ccccccccscccssccccccccccccsccc" /></g><g
   inkscape:groupmode="layer"
   id="g23791"
   inkscape:label="P #720e9e"
   style="display:none"
   transform="translate(-45.256416,-63.75774)"><text
     xml:space="preserve"
     style="font-style:normal;font-variant:normal;font-weight:bold;font-stretch:normal;font-size:226.971px;line-height:1.25;font-family:Optima;-inkscape-font-specification:'Optima Bold';letter-spacing:0px;overflow:visible;fill:#720e9e;fill-opacity:1;stroke-width:1.13487"
     x="184.41016"
     y="557.87714"
     id="text23789"
     transform="scale(1.0395282,0.96197487)"><tspan
       sodipodi:role="line"
       id="tspan23787"
       x="184.41016"
       y="557.87714"
       style="fill:#720e9e;fill-opacity:1;stroke-width:1.13487">P</tspan></text></g><g
   inkscape:groupmode="layer"
   id="layer3"
   inkscape:label="P #410093"
   style="display:inline"
   transform="translate(-45.256416,-63.75774)"><text
     xml:space="preserve"
     style="font-style:normal;font-variant:normal;font-weight:bold;font-stretch:normal;font-size:212.786px;line-height:1.25;font-family:Optima;-inkscape-font-specification:'Optima Bold';letter-spacing:0px;overflow:visible;fill:#410093;fill-opacity:1;stroke:#720e9e;stroke-width:9.37501;stroke-miterlimit:4;stroke-dasharray:none;stroke-opacity:1"
     x="174.4008"
     y="545.75629"
     id="text3511"
     transform="scale(1.0395282,0.96197487)"><tspan
       sodipodi:role="line"
       id="tspan3509"
       x="174.4008"
       y="545.75629"
       style="stroke:#720e9e;stroke-width:9.37501;stroke-miterlimit:4;stroke-dasharray:none;stroke-opacity:1">P</tspan></text></g><g
   inkscape:groupmode="layer"
   id="layer4"
   inkscape:label="F connection rect"
   transform="translate(-45.256416,-63.75774)"><rect
     style="display:inline;overflow:visible;opacity:0.94;fill:#410093;fill-opacity:1;stroke:none;stroke-width:10.067;stroke-miterlimit:4;stroke-dasharray:none;stroke-opacity:1"
     id="rect24630"
     width="20.03793"
     height="44.936802"
     x="397.97958"
     y="313.11569" /><rect
     style="opacity:0.94;fill:#410093;fill-opacity:1;stroke:none;stroke-width:10;stroke-miterlimit:4;stroke-dasharray:none;stroke-opacity:1"
     id="rect39598"
     width="9.5576696"
     height="17.791969"
     x="244.63087"
     y="440.92221"
     transform="rotate(-24.182225)"
     inkscape:transform-center-x="4.8513671"
     inkscape:transform-center-y="0.097843533" /><rect
     style="opacity:0.94;fill:#410093;fill-opacity:1;stroke:none;stroke-width:11.0587;stroke-miterlimit:4;stroke-dasharray:none;stroke-opacity:1"
     id="rect39704"
     width="9.5451632"
     height="14.219657"
     x="453.45261"
     y="241.10098"
     transform="matrix(0.99033896,0.13866772,-0.20410895,0.97894818,0,0)" /><rect
     style="opacity:0.94;fill:#410093;fill-opacity:1;stroke:none;stroke-width:10;stroke-miterlimit:4;stroke-dasharray:none;stroke-opacity:1"
     id="rect39808"
     width="5.8553715"
     height="5.4295263"
     x="405.12817"
     y="308.5939" /><rect
     style="opacity:0.94;fill:#720e9e;fill-opacity:1;stroke:none;stroke-width:8.16998;stroke-miterlimit:4;stroke-dasharray:none;stroke-opacity:1"
     id="rect39953"
     width="3.0722435"
     height="14.942276"
     x="537.31775"
     y="-36.219509"
     transform="rotate(60.40925)" /></g></svg>
