<?xml version="1.0" encoding="UTF-8" standalone="no"?>
<!-- Generator: Adobe Illustrator 12.0.1, SVG Export Plug-In . SVG Version: 6.00 Build 51448)  -->

<svg
   version="1.1"
   id="Layer_1"
   inkscape:output_extension="org.inkscape.output.svg.inkscape"
   sodipodi:version="0.32"
   inkscape:version="1.1.1 (c3084ef, 2021-09-22)"
   sodipodi:docname="yfpy-logo.svg"
   width="300.58774"
   height="288.90939"
   viewBox="130.35156 177.43359 300.58774 288.90939"
   overflow="visible"
   enable-background="new 130.3515625 177.4335938 800 151.6611328"
   xml:space="preserve"
   style="overflow:visible"
   inkscape:export-filename="/Users/wrenjr/Downloads/yfpy-logo.png"
   inkscape:export-xdpi="319.37"
   inkscape:export-ydpi="319.37"
   xmlns:inkscape="http://www.inkscape.org/namespaces/inkscape"
   xmlns:sodipodi="http://sodipodi.sourceforge.net/DTD/sodipodi-0.dtd"
   xmlns="http://www.w3.org/2000/svg"
   xmlns:svg="http://www.w3.org/2000/svg"
   xmlns:rdf="http://www.w3.org/1999/02/22-rdf-syntax-ns#"
   xmlns:cc="http://creativecommons.org/ns#"><metadata
   id="metadata2296"><rdf:RDF><cc:Work
       rdf:about="" /></rdf:RDF></metadata><defs
   id="defs2294"><inkscape:perspective
     sodipodi:type="inkscape:persp3d"
     inkscape:vp_x="0 : 64.739963 : 1"
     inkscape:vp_y="0 : 999.99999 : 0"
     inkscape:vp_z="800.00001 : 64.739963 : 1"
     inkscape:persp3d-origin="400 : 39.463103 : 1"
     id="perspective2840" /></defs>
<sodipodi:namedview
   gridtolerance="10.0"
   bordercolor="#666666"
   inkscape:zoom="1.9020558"
   inkscape:cx="115.9272"
   inkscape:cy="138.79719"
   pagecolor="#ffffff"
   guidetolerance="10.0"
   borderopacity="1.0"
   id="base"
   objecttolerance="10.0"
   inkscape:window-x="0"
   inkscape:window-y="38"
   inkscape:current-layer="layer4"
   inkscape:window-width="1728"
   inkscape:pageshadow="2"
   inkscape:pageopacity="0.0"
   inkscape:window-height="1004"
   showgrid="false"
   inkscape:window-maximized="1"
   inkscape:pagecheckerboard="0"
   fit-margin-left="0"
   fit-margin-top="0"
   fit-margin-right="0"
   fit-margin-bottom="0">
	</sodipodi:namedview>







<g
   inkscape:groupmode="layer"
   id="g23815"
   inkscape:label="F - fill #410093 border #720e9e"
   style="display:inline"
   transform="translate(-45.256416,-63.75774)"><g
     aria-label="f"
     id="text23813"
     style="font-weight:bold;font-size:218.68px;line-height:1.25;font-family:Optima;-inkscape-font-specification:'Optima Bold';letter-spacing:0px;overflow:visible;opacity:1;fill:#410093;stroke:#720e9e;stroke-width:9.45944"><path
       d="m 443.18183,307.37013 q -0.21868,1.74944 -0.43736,3.06152 -0.21868,1.31208 -0.21868,2.84284 0,1.31208 0.21868,2.84284 0.21868,1.31208 0.43736,2.62416 l -20.55592,-0.43736 v 18.15044 q 0,21.43064 0.43736,39.3624 0.43736,17.93176 1.31208,35.64483 -2.84284,-0.43736 -7.21644,-0.43736 -4.3736,0 -9.18456,0 -4.81096,0 -9.18456,0 -4.3736,0 -7.21644,0.43736 0.87472,-17.71307 1.31208,-35.64483 0.43736,-17.93176 0.43736,-39.3624 v -17.93176 l -15.3076,0.21868 q 0.65604,-2.62416 0.65604,-5.467 0,-2.62416 -0.65604,-5.90436 l 15.3076,0.65604 q 2.1868,-13.33948 5.467,-24.71084 3.2802,-11.37136 8.52852,-19.6812 5.467,-8.30984 13.55816,-12.90212 8.09116,-4.81096 19.89988,-4.81096 3.71756,0 9.18456,1.0934 -0.65604,3.49888 -0.87472,9.62192 0,5.90436 0,11.59004 v 7.21644 l -2.62416,0.87472 q -4.3736,-2.40548 -10.05928,-4.3736 -5.68568,-1.96812 -10.934,-1.96812 -6.34172,0 -9.8406,2.1868 -3.2802,1.96812 -3.2802,7.21644 0,5.02964 2.84284,12.90212 3.06152,7.87248 7.43512,15.52628 z"
       id="path931" /></g></g><g
   inkscape:groupmode="layer"
   id="g23957"
   inkscape:label="Y - fill #410093 border #720e9e"
   style="display:inline"
   transform="translate(-45.256416,-63.75774)"><path
     id="path23955"
     d="m 458.66362,320.41353 c -4.98478,0.4925 -25.73606,5.14149 -32.71077,6.63643 -7.46847,1.98744 -75.70206,54.70329 -80.1844,67.64781 -0.99372,4.47983 -1.49181,11.37247 -1.49181,17.84971 l -0.49998,10.46207 c 0,7.46475 2.07388,19.50386 3.06699,25.97611 4.48605,0.99994 36.95245,0.12685 42.92723,1.11933 l -0.73503,13.38978 c -5.83797,-0.42536 -47.06505,-0.32585 -70.61841,-0.32585 -11.95638,0 -50.39135,1.31832 -62.20035,0.96262 l 2.23245,-12.73309 c 6.47537,-0.50246 33.286,1.15665 39.17994,-5.06437 2.92768,-3.08689 1.9949,-6.39516 1.9949,-24.32198 v -8.46467 c 0,-3.98485 0,-11.45954 -0.99932,-18.43425 -2.48867,-7.47222 -62.58778,-82.51264 -78.02656,-94.46219 -4.48605,-1.49244 -32.57771,-4.30199 -39.54931,-5.7994 l -0.34699,-11.47074 c 3.47803,-1.74368 34.71564,0.42411 65.02981,-0.69772 19.92296,-0.73626 65.38051,0 70.98901,0.66789 l -1.43711,10.10886 c -5.97478,1.49618 -34.75854,2.04962 -42.23075,4.03955 19.42548,28.88639 50.13827,66.07575 60.10098,80.52021 5.48166,-7.96721 53.62933,-41.09214 55.12181,-52.5467 -7.47347,-1.49992 -32.21021,-5.05941 -36.1963,-5.05941 l -2.36615,-13.04154 c 6.78133,-1.06087 42.43844,0 60.16565,0 15.29886,0 47.98975,0 57.27901,0.76116 l -8.14106,11.76935 -2.03987,0.98034"
     style="overflow:visible;fill:#410093;fill-opacity:1;stroke:#720e9e;stroke-width:10;stroke-miterlimit:4;stroke-dasharray:none;stroke-opacity:1"
     sodipodi:nodetypes="ccccccccscccssccccccccccccsccc" /></g><g
   inkscape:groupmode="layer"
   id="layer3"
   inkscape:label="P - fill #410093 border #720e9e"
   style="display:inline"
   transform="translate(-45.256416,-63.75774)"><g
     aria-label="P"
     transform="scale(1.0395282,0.96197487)"
     id="text3511"
     style="font-weight:bold;font-size:212.786px;line-height:1.25;font-family:Optima;-inkscape-font-specification:'Optima Bold';letter-spacing:0px;overflow:visible;fill:#410093;stroke:#720e9e;stroke-width:9.37501"><path
       d="m 254.83391,440.85279 q 0,-8.08587 -1.91508,-13.6183 -1.70228,-5.53244 -4.89407,-8.72423 -2.97901,-3.40457 -7.23473,-4.89408 -4.04293,-1.4895 -8.51144,-1.4895 h -4.89407 q -1.06393,0 -2.12786,0 -1.06393,0 -1.91508,0.21279 -0.21278,15.32059 -0.42557,30.21561 0,14.68223 0,29.57725 5.31965,0 10.85209,-1.06393 5.74522,-1.06393 10.42651,-4.25572 4.68129,-3.40457 7.66029,-9.57537 2.97901,-6.17079 2.97901,-16.38452 z m -63.41023,18.08681 q 0,-17.66124 -0.42557,-31.27954 -0.42557,-13.83109 -1.27672,-27.66218 3.61737,0.42557 7.87309,0.85114 4.25572,0.21279 9.57537,0.21279 7.44751,0 15.32059,-0.42557 8.08587,-0.63836 15.74616,-0.63836 15.10781,0 23.61925,2.34065 8.51144,2.12786 13.40551,6.38358 6.80916,5.53243 10.00095,12.34158 3.19179,6.80916 3.19179,16.38452 0,12.12881 -4.04294,20.85303 -4.04293,8.72423 -11.49044,14.25666 -7.23473,5.31965 -17.23567,7.87309 -10.00094,2.55343 -21.91695,2.55343 h -10.85209 q 0,15.95895 0.21279,31.9179 0.42557,15.74616 1.4895,31.27954 -3.61736,-0.42557 -7.87308,-0.42557 -4.25572,0 -9.57537,0 -5.31965,0 -9.57537,0 -4.25572,0 -7.87309,0.42557 0.85115,-13.19273 1.27672,-26.81104 0.42557,-13.83109 0.42557,-31.49232 z"
       id="path1195" /><text
       xml:space="preserve"
       style="font-weight:600;font-size:1000px;line-height:1.25;font-family:'Source Code Pro';-inkscape-font-specification:'Source Code Pro Semi-Bold';letter-spacing:0px"
       x="225.06013"
       y="426.73276"
       id="text1291"
       transform="scale(0.96197487,1.0395282)"><tspan
         sodipodi:role="line"
         id="tspan1289"
         x="225.06013"
         y="426.73276" /></text></g></g><g
   inkscape:groupmode="layer"
   id="layer4"
   inkscape:label="Connections shapes - P (#720e9e) F (#410093)"
   transform="translate(-45.256416,-63.75774)"
   style="display:inline"><g
     id="g935"><rect
       style="display:inline;overflow:visible;opacity:1;fill:#410093;fill-opacity:1;stroke:none;stroke-width:10.067;stroke-miterlimit:4;stroke-dasharray:none;stroke-opacity:1"
       id="rect24630"
       width="20.039055"
       height="44.936802"
       x="397.97958"
       y="313.11569" /><rect
       style="opacity:1;fill:#410093;fill-opacity:1;stroke:none;stroke-width:10;stroke-miterlimit:4;stroke-dasharray:none;stroke-opacity:1"
       id="rect39598"
       width="9.5576696"
       height="17.791969"
       x="244.63087"
       y="440.92221"
       transform="rotate(-24.182225)"
       inkscape:transform-center-x="4.8513671"
       inkscape:transform-center-y="0.097843533" /><rect
       style="opacity:1;fill:#410093;fill-opacity:1;stroke:none;stroke-width:11.0587;stroke-miterlimit:4;stroke-dasharray:none;stroke-opacity:1"
       id="rect39704"
       width="9.5451632"
       height="14.219657"
       x="453.45261"
       y="241.10098"
       transform="matrix(0.99033896,0.13866772,-0.20410895,0.97894818,0,0)" /><rect
       style="opacity:1;fill:#410093;fill-opacity:1;stroke:none;stroke-width:10;stroke-miterlimit:4;stroke-dasharray:none;stroke-opacity:1"
       id="rect39808"
       width="5.8553715"
       height="5.4295263"
       x="405.12817"
       y="308.5939" /></g><rect
     style="opacity:0.94;fill:#720e9e;fill-opacity:1;stroke:none;stroke-width:8.16998;stroke-miterlimit:4;stroke-dasharray:none;stroke-opacity:1"
     id="rect39953"
     width="3.0722435"
     height="14.942276"
     x="537.31775"
     y="-36.219509"
     transform="rotate(60.40925)" /></g></svg>
